<svg width="24" height="24" viewBox="0 0 24 24" fill="none" xmlns="http://www.w3.org/2000/svg">
<path d="M19.774 18C20.5233 18 21.1193 17.5285 21.6544 16.8691C22.7499 15.5194 20.9513 14.4408 20.2653 13.9126C19.568 13.3756 18.7894 13.0714 18 13M17 11C18.3807 11 19.5 9.88071 19.5 8.5C19.5 7.11929 18.3807 6 17 6" stroke="#445E94" stroke-linecap="round"/>
<path d="M4.22596 18C3.47665 18 2.88067 17.5285 2.34554 16.8691C1.25009 15.5194 3.04867 14.4408 3.73464 13.9126C4.43197 13.3756 5.21058 13.0714 6 13M6.5 11C5.11929 11 4 9.88071 4 8.5C4 7.11929 5.11929 6 6.5 6" stroke="#445E94" stroke-linecap="round"/>
<path d="M8.0838 15.1112C7.06202 15.743 4.38298 17.0331 6.0147 18.6474C6.81178 19.436 7.69952 20 8.81562 20H15.1844C16.3005 20 17.1882 19.436 17.9853 18.6474C19.617 17.0331 16.938 15.743 15.9162 15.1112C13.5201 13.6296 10.4798 13.6296 8.0838 15.1112Z" stroke="#445E94" stroke-linecap="round" stroke-linejoin="round"/>
<path d="M15.5 7.5C15.5 9.433 13.933 11 12 11C10.067 11 8.5 9.433 8.5 7.5C8.5 5.567 10.067 4 12 4C13.933 4 15.5 5.567 15.5 7.5Z" stroke="#445E94"/>
</svg>
