<svg width="24" height="24" viewBox="0 0 24 24" fill="none" xmlns="http://www.w3.org/2000/svg">
<path d="M9.9998 4H4.7692C4.34438 4 4 4.34438 4 4.7692V9.9998C4 10.4246 4.34438 10.769 4.7692 10.769H9.9998C10.4246 10.769 10.769 10.4246 10.769 9.9998V4.7692C10.769 4.34438 10.4246 4 9.9998 4Z" fill="#445E94"/>
<path d="M19.2312 4H14.0006C13.5758 4 13.2314 4.34438 13.2314 4.7692V9.9998C13.2314 10.4246 13.5758 10.769 14.0006 10.769H19.2312C19.6561 10.769 20.0004 10.4246 20.0004 9.9998V4.7692C20.0004 4.34438 19.6561 4 19.2312 4Z" fill="#445E94"/>
<path d="M9.9998 13.2305H4.7692C4.34438 13.2305 4 13.5749 4 13.9997V19.2303C4 19.6551 4.34438 19.9995 4.7692 19.9995H9.9998C10.4246 19.9995 10.769 19.6551 10.769 19.2303V13.9997C10.769 13.5749 10.4246 13.2305 9.9998 13.2305Z" fill="#445E94"/>
<path d="M19.2312 13.2305H14.0006C13.5758 13.2305 13.2314 13.5749 13.2314 13.9997V19.2303C13.2314 19.6551 13.5758 19.9995 14.0006 19.9995H19.2312C19.6561 19.9995 20.0004 19.6551 20.0004 19.2303V13.9997C20.0004 13.5749 19.6561 13.2305 19.2312 13.2305Z" fill="#445E94"/>
</svg>
