<svg width="24" height="24" viewBox="0 0 24 24" fill="none" xmlns="http://www.w3.org/2000/svg">
<path d="M19 11.0032V10C19 6.22876 19 4.34315 17.8284 3.17157C16.6569 2 14.7712 2 11 2H10.0082L3 8.98648V14.0062C3 17.7714 3 19.654 4.16811 20.825L4.17504 20.8319C5.34602 22 7.2286 22 10.9938 22" stroke="#445E94" stroke-linecap="round" stroke-linejoin="round"/>
<path d="M3 9.00195H4C6.82843 9.00195 8.24264 9.00195 9.12132 8.12327C10 7.24459 10 5.83038 10 3.00195V2.00195" stroke="#445E94" stroke-linecap="round" stroke-linejoin="round"/>
<path d="M18 23C17.6364 23 17.289 22.8416 16.5942 22.5246C14.8647 21.7359 14 21.3415 14 20.678V16.0418M18 23C18.3636 23 18.711 22.8416 19.4058 22.5246C21.1353 21.7359 22 21.3415 22 20.678V16.0418M18 23V18.2012M14 16.0418C14 16.3365 14.3563 16.5227 15.0688 16.8949L16.3671 17.5732C17.1684 17.9919 17.569 18.2012 18 18.2012M14 16.0418C14 15.747 14.3563 15.5609 15.0688 15.1886L18 14L20.9312 15.1886C21.6437 15.5609 22 15.747 22 16.0418M22 16.0418C22 16.3365 21.6437 16.5227 20.9312 16.8949L19.6329 17.5732C18.8316 17.9919 18.431 18.2012 18 18.2012M15.3333 18.6811L16.2222 19.161" stroke="#445E94" stroke-linecap="round" stroke-linejoin="round"/>
<path d="M10 18L5 18" stroke="#445E94" stroke-linecap="round" stroke-linejoin="round"/>
<path d="M10 15L5 15" stroke="#445E94" stroke-linecap="round" stroke-linejoin="round"/>
<path d="M17 7L13 7" stroke="#445E94" stroke-linecap="round" stroke-linejoin="round"/>
<path d="M15 12L5 12" stroke="#445E94" stroke-linecap="round" stroke-linejoin="round"/>
</svg>
