<svg width="16" height="17" viewBox="0 0 16 17" fill="none" xmlns="http://www.w3.org/2000/svg">
<path d="M13.3647 11.0789C14.8201 10.6948 15.3676 8.05898 14.5877 5.19169C13.8078 2.3244 11.9957 0.311415 10.5404 0.695559C9.08506 1.0797 8.53752 3.71551 9.31744 6.5828C10.0974 9.45009 11.9094 11.4631 13.3647 11.0789Z" stroke="#445E94"/>
<path d="M10.5405 0.695138C8.49626 1.23473 4.67881 3.89612 2.50578 5.49642C1.51068 6.22924 1.0906 7.48685 1.41216 8.66905C1.73373 9.85126 2.73585 10.7334 3.96959 10.878C6.66374 11.1936 11.3206 11.6181 13.3649 11.0785" stroke="#445E94"/>
<path d="M8.89849 15.4271L8.13297 16.4841C5.44779 15.3384 5.49391 14.4419 4.60028 11.1565L5.33689 11.3099C6.14501 13.0865 7.10956 13.4267 8.2693 13.8029C8.98369 14.0346 9.3334 14.8265 8.89849 15.4271Z" stroke="#445E94" stroke-linecap="round" stroke-linejoin="round"/>
</svg>
