<svg width="24" height="24" viewBox="0 0 24 24" fill="none" xmlns="http://www.w3.org/2000/svg">
<path d="M9.59003 9.2408C8.96124 9.662 7.31261 10.5221 8.31674 11.5983C8.80725 12.124 9.35355 12.5 10.0404 12.5H13.9596C14.6465 12.5 15.1927 12.124 15.6833 11.5983C16.6874 10.5221 15.0388 9.662 14.41 9.2408C12.9355 8.25307 11.0645 8.25307 9.59003 9.2408Z" stroke="#445E94" stroke-linecap="round" stroke-linejoin="round"/>
<path d="M14 4.5C14 5.60457 13.1046 6.5 12 6.5C10.8954 6.5 10 5.60457 10 4.5C10 3.39543 10.8954 2.5 12 2.5C13.1046 2.5 14 3.39543 14 4.5Z" stroke="#445E94"/>
<path d="M4 18.5L4 16.5C4 15.3954 4.89543 14.5 6 14.5H18C19.1046 14.5 20 15.3954 20 16.5V18.5M12 12.5V18.5" stroke="#445E94" stroke-linecap="round"/>
<circle cx="4" cy="20" r="1.5" fill="#445E94"/>
<circle cx="12" cy="20" r="1.5" fill="#445E94"/>
<circle cx="20" cy="20" r="1.5" fill="#445E94"/>
</svg>
