<svg width="28" height="28" viewBox="0 0 28 28" fill="none" xmlns="http://www.w3.org/2000/svg">
<path d="M21.9164 12.1853C22.3643 11.6814 23.1371 10.9198 23.0959 10.6096C23.1276 10.308 22.9643 10.0246 22.6377 9.45784L22.1771 8.65837C21.8287 8.05375 21.6545 7.75144 21.3581 7.63089C21.0617 7.51034 20.7265 7.60547 20.0561 7.79571L18.9172 8.11649C18.4892 8.21519 18.0402 8.1592 17.6493 7.9584L17.3349 7.77699C16.9998 7.56234 16.742 7.24586 16.5993 6.87385L16.2876 5.94299C16.0827 5.327 15.9803 5.019 15.7363 4.84283C15.4923 4.66666 15.1683 4.66666 14.5203 4.66666H13.4799C12.8318 4.66666 12.5077 4.66666 12.2639 4.84283C12.0199 5.019 11.9174 5.327 11.7125 5.94299L11.4009 6.87385C11.2582 7.24586 11.0004 7.56234 10.6652 7.77699L10.3508 7.9584C9.96003 8.1592 9.51093 8.21519 9.08292 8.11649L7.94411 7.79571C7.27372 7.60547 6.93848 7.51034 6.64206 7.63089C6.34565 7.75144 6.17149 8.05375 5.82309 8.65837L5.36241 9.45784C5.03586 10.0246 4.87262 10.308 4.90426 10.6096C4.93599 10.9113 5.15457 11.1544 5.59172 11.6406L6.55405 12.7163C6.78915 13.0141 6.95621 13.533 6.95621 13.9994C6.95621 14.4663 6.78924 14.985 6.55405 15.2828L5.59172 16.3586C5.15457 16.8448 4.93599 17.0879 4.90426 17.3896C4.87262 17.6913 5.03586 17.9747 5.36241 18.5414L5.82309 19.3408C6.17149 19.9454 6.34565 20.2478 6.64206 20.3683C6.93848 20.4889 7.27372 20.3938 7.94411 20.2035L9.08292 19.8827C9.51102 19.784 9.96013 19.8401 10.351 20.0409L10.6653 20.2223C11.0005 20.437 11.2582 20.7534 11.4008 21.1254L11.7125 22.0564C11.9174 22.6723 12.0308 22.9926 12.2175 23.1273C12.2735 23.1678 12.4975 23.3513 13.0462 23.3345M6.08379 15.817C5.6358 16.3209 4.86303 17.0825 4.90428 17.3926C4.87255 17.6943 5.03588 17.9777 5.36244 18.5444L5.82302 19.3439C6.17142 19.9485 6.34567 20.2508 6.64209 20.3714C6.93841 20.4919 7.27365 20.3968 7.94404 20.2065L9.08295 19.8858C9.51097 19.7871 9.95998 19.8431 10.3508 20.0439L10.6653 20.2253C11.0003 20.4399 11.2581 20.7564 11.4008 21.1284L11.7125 22.0593C11.9174 22.6753 12.0199 22.9833 12.2638 23.1594C12.5078 23.3356 12.8318 23.3356 13.4798 23.3356H14.5203C15.1684 23.3356 15.4924 23.3356 15.7362 23.1594C15.9802 22.9833 16.0827 22.6753 16.2876 22.0593L16.5993 21.1284C16.742 20.7564 16.9998 20.4399 17.3349 20.2253L17.6493 20.0439C18.0401 19.8431 18.4892 19.7871 18.9172 19.8858L20.056 20.2065C20.7264 20.3968 21.0617 20.4919 21.3581 20.3714C21.6545 20.2508 21.8286 19.9485 22.177 19.3439L22.6377 18.5444C22.9643 17.9777 23.1275 17.6943 23.0959 17.3926C23.0641 17.091 22.8456 16.8479 22.4084 16.3617L21.4461 15.2859C21.211 14.9882 21.0439 14.4693 21.0439 14.0028C21.0439 13.536 21.2109 13.0172 21.4461 12.7194L22.4084 11.6436C22.8456 11.1575 23.0641 10.9143 23.0959 10.6127C23.1275 10.3109 22.9643 10.0276 22.6377 9.4609L22.1771 8.66143C21.8286 8.05684 21.6545 7.75445 21.3581 7.63396C21.0617 7.51338 20.7264 7.60848 20.056 7.79878L18.9172 8.11956C18.4891 8.2183 18.04 8.16221 17.6491 7.96136L17.3348 7.77993C16.9997 7.56527 16.742 7.24888 16.5994 6.87687L16.2876 5.9459C16.0827 5.32992 15.9694 5.0097 15.7827 4.87493C15.7267 4.83443 15.5027 4.65094 14.9539 4.66774" stroke="white" stroke-linecap="round"/>
<path d="M16.2495 11.6179C15.4655 10.9795 14.8496 10.7331 13.9536 10.7331C12.2736 10.7555 10.7393 12.1433 10.7393 13.9474C10.7393 14.942 11.0416 15.5713 11.6128 16.2321" stroke="white" stroke-linecap="round"/>
<path d="M11.6128 16.2321C12.3968 16.8705 13.1511 17.2691 14.0471 17.2691C15.7271 17.2467 17.2614 15.859 17.2614 14.0549C17.2614 13.0603 16.8207 12.2787 16.2495 11.6179" stroke="white" stroke-linecap="round"/>
</svg>
